<!DOCTYPE svg PUBLIC "-//W3C//DTD SVG 1.1//EN" "http://www.w3.org/Graphics/SVG/1.1/DTD/svg11.dtd">
<!-- Uploaded to: SVG Repo, www.svgrepo.com, Transformed by: SVG Repo Mixer Tools -->
<svg fill="#000000" height="64px" width="64px" version="1.1" id="Layer_1" xmlns="http://www.w3.org/2000/svg" xmlns:xlink="http://www.w3.org/1999/xlink" viewBox="-409.6 -409.6 1331.20 1331.20" xml:space="preserve" transform="rotate(45)" stroke="#000000" stroke-width="0.0051199900000000005">
<g id="SVGRepo_bgCarrier" stroke-width="0"/>
<g id="SVGRepo_tracerCarrier" stroke-linecap="round" stroke-linejoin="round" stroke="#CCCCCC" stroke-width="10.239980000000001"/>
<g id="SVGRepo_iconCarrier"> <g> <g> <path d="M487.878,156.405c0-36.183-29.436-65.619-65.619-65.619c-23.29,0-43.771,12.208-55.419,30.55 c-11.648-18.343-32.129-30.55-55.42-30.55c-1.386,0-2.764,0.059-4.137,0.145l39.273-39.273c0.172-0.172,0.339-0.351,0.498-0.534 c9.552-11.03,41.109-39.803,60.167-27.73c13.846,8.769,14.76,21.605,11.336,29.932c-3.187,7.752-11.494,14.959-25.246,11.948 c-1.987-0.435-3.013-1.458-3.049-3.041c-0.06-2.539,2.496-5.803,8.339-7.375c5.439-1.464,8.663-7.06,7.199-12.499 c-1.464-5.44-7.058-8.657-12.498-7.201c-16.531,4.447-23.68,17.042-23.432,27.555c0.259,11.007,7.925,20.043,19.076,22.488 c24.44,5.353,41.955-8.256,48.477-24.117c6.711-16.319,3.537-40.468-19.287-54.923c-36.725-23.26-81.993,26.496-86.242,31.313 l-42.927,42.925l0.192-46.371c0.074-18.115-14.603-32.914-32.718-32.99c-8.809-0.047-17.042,3.347-23.273,9.528 c-6.231,6.181-9.683,14.416-9.719,23.179l-0.2,37.378c-21.367-2.333-43.568,4.656-59.914,21.001 c-6.449,6.449-12.32,17.318-17.538,30.204c-11.531-18.899-32.344-31.542-56.056-31.542c-36.183,0-65.619,29.436-65.619,65.619 c0,35.713,28.684,64.833,64.221,65.583c-5.36,9.681-8.241,20.657-8.241,31.822c0,35.518,28.37,64.515,63.636,65.569 c-4.879,9.171-7.656,19.623-7.656,30.716c0,35.147,27.778,63.922,62.532,65.541c-4.889,9.177-7.672,19.64-7.672,30.744 c0,36.183,29.436,65.619,65.618,65.619c36.183,0,65.619-29.436,65.619-65.619c0-11.092-2.777-21.545-7.656-30.716 c35.266-1.055,63.637-30.051,63.637-65.569c0-11.104-2.782-21.567-7.671-30.744c34.753-1.619,62.531-30.394,62.531-65.541 c0-11.552-3.012-22.41-8.276-31.849C459.777,220.648,487.878,191.754,487.878,156.405z M284.552,120.039 c7.743-5.737,17.095-8.856,26.867-8.856c24.936,0.001,45.221,20.287,45.221,45.221s-20.286,45.22-45.221,45.22 c-13.885,0-26.671-6.2-35.212-16.832C289.115,165.503,291.898,141.404,284.552,120.039z M291.222,224.797 c4.806,5.733,8.157,12.64,9.651,19.972c0.606,2.973,0.908,6.007,0.908,9.041c0,24.935-20.287,45.22-45.221,45.22 s-45.22-20.287-45.22-45.221c0-8.268,2.338-16.473,6.639-23.53c2.149-3.526,4.776-6.758,7.794-9.577 c6.781-6.336,15.734-10.406,24.896-11.718c7.657-1.096,15.615-0.019,22.776,2.873 C280.316,214.634,286.461,219.118,291.222,224.797z M243.846,33.841c0.013-3.328,1.322-6.45,3.685-8.793 c2.35-2.33,5.463-3.612,8.771-3.612c0.017,0,0.036,0,0.053,0c6.868,0.028,12.434,5.639,12.405,12.508l-0.246,59.667 c-0.47-0.497-0.927-1.001-1.414-1.487c-6.94-6.94-14.942-12.181-23.481-15.753L243.846,33.841z M154.718,159.931 c0.185-0.5,0.339-1.013,0.443-1.546c6.792-23.509,14.702-43.941,22.597-51.836c10.326-10.328,23.893-15.491,37.459-15.491 c10.39,0,20.775,3.041,29.711,9.1l-31.282,31.282c-3.983,3.983-3.983,10.441,0,14.424c1.992,1.991,4.602,2.987,7.212,2.987 s5.221-0.996,7.212-2.987l31.231-31.231c13.718,20.572,11.514,48.697-6.624,66.835c-14.469,14.469-71.045,28.988-111.489,36.57 C144.541,200.143,149.254,179.095,154.718,159.931z M89.74,201.624c-24.936,0.001-45.221-20.284-45.221-45.219 c0-24.935,20.286-45.221,45.221-45.221c24.359,0,44.271,19.364,45.177,43.506c-2.45,8.591-4.651,17.239-6.587,25.463 c-0.242,0.293-0.473,0.599-0.685,0.924C119.249,193.942,105.079,201.624,89.74,201.624z M145.719,299.032 c-24.935-0.001-45.22-20.287-45.22-45.222c0-15.399,7.986-29.475,20.308-37.696c-1.171,6.351-1.928,10.91-2.242,12.849 c-0.523,3.234,0.539,6.523,2.856,8.84c1.929,1.928,4.528,2.987,7.212,2.987c0.542,0,1.086-0.043,1.629-0.131 c5.04-0.816,27.794-4.625,53.728-10.944c4.556,7.19,6.951,15.426,6.951,24.095C190.94,278.745,170.654,299.032,145.719,299.032z M201.699,395.316c-24.936-0.001-45.221-20.287-45.221-45.221c0-24.935,20.286-45.221,45.221-45.221 c24.935,0,45.22,20.287,45.22,45.221C246.919,375.03,226.634,395.316,201.699,395.316z M256.559,491.601 c-24.935,0-45.22-20.287-45.22-45.221s20.286-45.22,45.22-45.22c24.935,0,45.221,20.286,45.221,45.22 S281.494,491.601,256.559,491.601z M312.539,395.315c-24.936,0-45.221-20.287-45.221-45.221s20.286-45.221,45.221-45.221 c24.935,0,45.22,20.287,45.22,45.221S337.474,395.315,312.539,395.315z M367.399,299.031c-24.935,0-45.22-20.287-45.22-45.221 s20.286-45.221,45.22-45.221c24.935,0,45.22,20.287,45.22,45.221S392.334,299.031,367.399,299.031z M422.259,201.625 c-24.935,0-45.22-20.286-45.22-45.22s20.286-45.221,45.22-45.221c24.936,0,45.221,20.287,45.221,45.221 S447.194,201.625,422.259,201.625z"/> </g> </g> <g> <g> <path d="M201.605,157.901c-3.983-3.982-10.441-3.983-14.423,0.001l-12.966,12.967c-3.983,3.983-3.983,10.44,0,14.423 c1.992,1.991,4.602,2.987,7.212,2.987s5.221-0.996,7.212-2.988l12.966-12.967C205.588,168.342,205.588,161.885,201.605,157.901z"/> </g> </g> </g>
</svg>