<?xml version="1.0" standalone="no"?>
<svg xmlns:xlink="http://www.w3.org/1999/xlink" id="wave" style="transform:rotate(180deg); transition: 0.3s" viewBox="0 0 1440 250" version="1.1" xmlns="http://www.w3.org/2000/svg"><defs><linearGradient id="sw-gradient-0" x1="0" x2="0" y1="1" y2="0"><stop stop-color="rgba(255, 103, 154, 1)" offset="0%"/><stop stop-color="rgba(255, 103, 154, 1)" offset="100%"/></linearGradient></defs><path style="transform:translate(0, 0px); opacity:1" fill="url(#sw-gradient-0)" d="M0,25L18.5,29.2C36.9,33,74,42,111,50C147.7,58,185,67,222,70.8C258.5,75,295,75,332,87.5C369.2,100,406,125,443,137.5C480,150,517,150,554,141.7C590.8,133,628,117,665,125C701.5,133,738,167,775,158.3C812.3,150,849,100,886,79.2C923.1,58,960,67,997,62.5C1033.8,58,1071,42,1108,45.8C1144.6,50,1182,75,1218,95.8C1255.4,117,1292,133,1329,129.2C1366.2,125,1403,100,1440,87.5C1476.9,75,1514,75,1551,75C1587.7,75,1625,75,1662,75C1698.5,75,1735,75,1772,62.5C1809.2,50,1846,25,1883,33.3C1920,42,1957,83,1994,108.3C2030.8,133,2068,142,2105,137.5C2141.5,133,2178,117,2215,125C2252.3,133,2289,167,2326,158.3C2363.1,150,2400,100,2437,75C2473.8,50,2511,50,2548,50C2584.6,50,2622,50,2640,50L2658.5,50L2658.5,250L2640,250C2621.5,250,2585,250,2548,250C2510.8,250,2474,250,2437,250C2400,250,2363,250,2326,250C2289.2,250,2252,250,2215,250C2178.5,250,2142,250,2105,250C2067.7,250,2031,250,1994,250C1956.9,250,1920,250,1883,250C1846.2,250,1809,250,1772,250C1735.4,250,1698,250,1662,250C1624.6,250,1588,250,1551,250C1513.8,250,1477,250,1440,250C1403.1,250,1366,250,1329,250C1292.3,250,1255,250,1218,250C1181.5,250,1145,250,1108,250C1070.8,250,1034,250,997,250C960,250,923,250,886,250C849.2,250,812,250,775,250C738.5,250,702,250,665,250C627.7,250,591,250,554,250C516.9,250,480,250,443,250C406.2,250,369,250,332,250C295.4,250,258,250,222,250C184.6,250,148,250,111,250C73.8,250,37,250,18,250L0,250Z"/></svg>