<?xml version="1.0" standalone="no"?>
<svg xmlns:xlink="http://www.w3.org/1999/xlink" id="wave" style="transform:rotate(0deg); transition: 0.3s" viewBox="0 0 1440 170" version="1.1" xmlns="http://www.w3.org/2000/svg"><defs><linearGradient id="sw-gradient-0" x1="0" x2="0" y1="1" y2="0"><stop stop-color="rgba(252, 105, 1, 1)" offset="0%"/><stop stop-color="rgba(252, 105, 1, 1)" offset="100%"/></linearGradient></defs><path style="transform:translate(0, 0px); opacity:1" fill="url(#sw-gradient-0)" d="M0,34L17.1,51C34.3,68,69,102,103,113.3C137.1,125,171,113,206,99.2C240,85,274,68,309,65.2C342.9,62,377,74,411,65.2C445.7,57,480,28,514,36.8C548.6,45,583,91,617,93.5C651.4,96,686,57,720,48.2C754.3,40,789,62,823,68C857.1,74,891,62,926,48.2C960,34,994,17,1029,31.2C1062.9,45,1097,91,1131,102C1165.7,113,1200,91,1234,73.7C1268.6,57,1303,45,1337,36.8C1371.4,28,1406,23,1440,39.7C1474.3,57,1509,96,1543,96.3C1577.1,96,1611,57,1646,51C1680,45,1714,74,1749,70.8C1782.9,68,1817,34,1851,31.2C1885.7,28,1920,57,1954,73.7C1988.6,91,2023,96,2057,104.8C2091.4,113,2126,125,2160,133.2C2194.3,142,2229,147,2263,144.5C2297.1,142,2331,130,2366,127.5C2400,125,2434,130,2451,133.2L2468.6,136L2468.6,170L2451.4,170C2434.3,170,2400,170,2366,170C2331.4,170,2297,170,2263,170C2228.6,170,2194,170,2160,170C2125.7,170,2091,170,2057,170C2022.9,170,1989,170,1954,170C1920,170,1886,170,1851,170C1817.1,170,1783,170,1749,170C1714.3,170,1680,170,1646,170C1611.4,170,1577,170,1543,170C1508.6,170,1474,170,1440,170C1405.7,170,1371,170,1337,170C1302.9,170,1269,170,1234,170C1200,170,1166,170,1131,170C1097.1,170,1063,170,1029,170C994.3,170,960,170,926,170C891.4,170,857,170,823,170C788.6,170,754,170,720,170C685.7,170,651,170,617,170C582.9,170,549,170,514,170C480,170,446,170,411,170C377.1,170,343,170,309,170C274.3,170,240,170,206,170C171.4,170,137,170,103,170C68.6,170,34,170,17,170L0,170Z"/></svg>