<!DOCTYPE svg PUBLIC "-//W3C//DTD SVG 1.1//EN" "http://www.w3.org/Graphics/SVG/1.1/DTD/svg11.dtd">
<!-- Uploaded to: SVG Repo, www.svgrepo.com, Transformed by: SVG Repo Mixer Tools -->
<svg fill="#000000" height="64px" width="64px" version="1.1" id="Layer_1" xmlns="http://www.w3.org/2000/svg" xmlns:xlink="http://www.w3.org/1999/xlink" viewBox="0 0 327.076 327.076" xml:space="preserve" stroke="#000000" stroke-width="0.00327076">
<g id="SVGRepo_bgCarrier" stroke-width="0"/>
<g id="SVGRepo_tracerCarrier" stroke-linecap="round" stroke-linejoin="round"/>
<g id="SVGRepo_iconCarrier"> <g> <g> <g> <path d="M239.526,105.58c-3.388-5.652-8.8-18.512-14.036-30.944c-9.72-23.092-15.208-35.476-19.312-39.788l-0.284-5.852 c4.432-0.928,7.772-4.864,7.772-9.568V9.78c0-5.388-4.388-9.78-9.776-9.78h-80.704c-5.388,0-9.772,4.388-9.772,9.78v9.648 c0,4.704,3.336,8.64,7.768,9.572l-0.288,5.844c-4.1,4.32-9.588,16.704-19.308,39.792c-5.236,12.428-10.652,25.288-14.04,30.94 c-5.492,9.156-8.392,19.536-8.392,30.012V302.5c0,13.548,11.824,24.576,26.356,24.576h116.056 c14.532,0,26.356-11.024,26.356-24.576V135.592C247.922,125.116,245.018,114.736,239.526,105.58z M119.738,19.428V9.78 c0-1.9,1.544-3.448,3.448-3.448h80.704c1.9,0,3.448,1.544,3.448,3.448v9.648c0,1.904-1.544,3.448-3.448,3.448h-80.704 C121.282,22.876,119.738,21.332,119.738,19.428z M241.598,243.964h-0.008H101.758c-1.224,0-2.216,0.992-2.216,2.216 c0,1.228,0.992,2.216,2.216,2.216H241.59V302.5c0,10.06-8.984,18.244-20.024,18.244H105.51c-11.04,0-20.024-8.184-20.024-18.244 V135.592c0-4.6,0.64-9.184,1.872-13.632h133.1c1.224,0,2.216-0.992,2.216-2.216c0-1.228-0.992-2.216-2.216-2.216H88.898 c1.12-2.984,2.416-5.92,4.084-8.696c3.616-6.036,8.876-18.524,14.44-31.74c6.02-14.296,15.116-35.904,18.3-38.116 c0.852-0.552,1.388-1.484,1.436-2.492l0.344-6.952h72.088l0.336,6.948c0.048,0.98,0.624,1.936,1.432,2.496 c3.184,2.216,12.284,23.824,18.308,38.12c5.564,13.22,10.824,25.704,14.44,31.74c4.9,8.176,7.492,17.428,7.492,26.76V243.964z"/> <path d="M134.978,20.212c1.224,0,2.216-0.992,2.216-2.216V11.22c0-1.228-0.992-2.216-2.216-2.216s-2.216,0.992-2.216,2.216V18 C132.762,19.22,133.754,20.212,134.978,20.212z"/> <path d="M154.018,20.212c1.224,0,2.216-0.992,2.216-2.216V11.22c0-1.228-0.992-2.216-2.216-2.216s-2.216,0.992-2.216,2.216V18 C151.802,19.22,152.794,20.212,154.018,20.212z"/> <path d="M173.054,20.212c1.224,0,2.216-0.992,2.216-2.216V11.22c0-1.228-0.992-2.216-2.216-2.216s-2.216,0.992-2.216,2.216V18 C170.842,19.22,171.83,20.212,173.054,20.212z"/> <path d="M192.098,20.212c1.224,0,2.216-0.992,2.216-2.216V11.22c0-1.228-0.992-2.216-2.216-2.216s-2.216,0.992-2.216,2.216V18 C189.882,19.22,190.874,20.212,192.098,20.212z"/> <path d="M176.862,34.072h-0.012l-38.964,0.24c-1.224,0.008-2.208,1.008-2.204,2.228c0.008,1.22,1,2.204,2.216,2.204h0.016 l38.96-0.24c1.224-0.012,2.208-1.008,2.204-2.228C179.07,35.052,178.078,34.072,176.862,34.072z"/> <path d="M123.686,73.856c-1.136-0.46-2.432,0.088-2.884,1.228l-13.068,32.4c-0.46,1.132,0.092,2.424,1.224,2.884 c0.272,0.108,0.552,0.16,0.828,0.16c0.876,0,1.704-0.524,2.056-1.388l13.072-32.396C125.37,75.604,124.822,74.316,123.686,73.856 z"/> <path d="M132.038,53.516c-1.128-0.46-2.424,0.088-2.884,1.228c-3.232,8.008-3.872,9.848-4.28,11.024 c-0.184,0.52-0.316,0.896-0.628,1.68c-0.46,1.132,0.088,2.424,1.228,2.88c0.268,0.108,0.548,0.164,0.828,0.164 c0.876,0,1.704-0.524,2.052-1.388c0.356-0.876,0.5-1.3,0.704-1.88c0.404-1.156,1.032-2.964,4.208-10.824 C133.718,55.264,133.17,53.976,132.038,53.516z"/> <path d="M102.646,312.36c1.224,0,2.216-0.992,2.216-2.216V293.1c0-1.228-0.992-2.216-2.216-2.216s-2.216,0.988-2.216,2.216 v17.048C100.434,311.368,101.422,312.36,102.646,312.36z"/> <path d="M102.646,286.308c1.224,0,2.216-0.992,2.216-2.216v-28.296c0-1.228-0.992-2.216-2.216-2.216s-2.216,0.988-2.216,2.216 v28.296C100.434,285.316,101.422,286.308,102.646,286.308z"/> <path d="M186.11,273.024c0.332,0,0.668-0.072,0.984-0.232l29.72-14.82c1.096-0.544,1.544-1.876,0.996-2.976 c-0.544-1.088-1.876-1.532-2.968-0.992l-29.724,14.82c-1.096,0.548-1.54,1.88-0.992,2.976 C184.514,272.576,185.298,273.024,186.11,273.024z"/> <path d="M153.15,289.468c0.332,0,0.668-0.072,0.988-0.236l24.896-12.416c1.096-0.548,1.54-1.88,0.992-2.976 c-0.544-1.088-1.876-1.536-2.968-0.996l-24.904,12.428c-1.096,0.544-1.54,1.876-0.992,2.968 C151.554,289.016,152.334,289.468,153.15,289.468z"/> <path d="M178.882,293.924c0.396,0.752,1.164,1.18,1.96,1.18c0.348,0,0.708-0.084,1.036-0.26l38.676-20.524 c1.08-0.576,1.492-1.912,0.916-2.996c-0.572-1.084-1.92-1.488-2.996-0.924l-38.676,20.528 C178.718,291.504,178.31,292.84,178.882,293.924z"/> <path d="M170.682,295.768l-16.732,8.876c-1.08,0.576-1.488,1.912-0.916,2.996c0.396,0.752,1.164,1.18,1.96,1.18 c0.348,0,0.708-0.084,1.036-0.26l16.728-8.876c1.084-0.576,1.492-1.916,0.92-2.996 C173.102,295.608,171.766,295.2,170.682,295.768z"/> <path d="M146.042,220.636c-22.18-1.996-35.324-15.38-37.024-37.696c-1.848-24.32,9.36-36.864,19.084-43.104 c15.224-9.764,36.94-10.444,52.808-1.656c11.36,6.296,17.544,16.432,17.408,28.548c-0.016,1.236,0.972,2.244,2.208,2.256h0.024 c1.22,0,2.22-0.98,2.232-2.208c0.152-13.84-6.844-25.38-19.708-32.5c-17.248-9.552-40.848-8.812-57.388,1.8 c-15.196,9.748-22.696,26.508-21.124,47.2c1.852,24.392,16.828,39.624,41.076,41.808c0.064,0.004,0.136,0.008,0.204,0.008 c1.144,0,2.116-0.872,2.224-2.032C148.178,221.832,147.27,220.744,146.042,220.636z"/> <path d="M153.194,153.252c-2.352-1.664-4.584,2.208-2.256,3.856c3.556,2.516,8.812,1.912,11.6-1.484 c2.816-3.44,2.268-8.624-0.84-11.668c-2.052-2.012-5.212,1.144-3.156,3.16C162.37,150.868,157.482,156.288,153.194,153.252z"/> <path d="M215.414,161.824c-0.584-0.156-1.188-0.064-1.704,0.244l-10.352,6.144l-55.752,33.092l-0.004,0.004l-6.26,3.716 c-0.508,0.3-0.88,0.8-1.024,1.372c-0.148,0.576-0.056,1.192,0.252,1.696c9.16,15.196,25.044,23.776,40.832,23.776 c7.372,0,14.724-1.864,21.36-5.808c20.852-12.38,27.144-40.728,14.016-63.204C216.482,162.344,215.99,161.976,215.414,161.824z M207.298,171.072c1.788,6.312,2.228,12.544,1.5,18.292l-24.672-4.54L207.298,171.072z M207.922,193.744 c-1.864,7.524-5.94,13.84-11.952,17.9l-13.632-22.604L207.922,193.744z M192.122,213.908c-5.412,2.444-11.512,3-17.672,1.848 l5.024-22.816L192.122,213.908z M175.57,189.9l-5.456,24.764c-6.248-1.98-12.4-5.672-17.796-10.96L175.57,189.9z M200.482,222.224c-18.148,10.784-42.312,4.216-54.88-14.532l2.804-1.664c9.392,9.592,21.072,14.784,32.116,14.784 c5.836,0,11.488-1.44,16.508-4.416c14.516-8.612,20.2-28.02,14.2-47.656l2.784-1.656 C224.446,187.096,218.638,211.452,200.482,222.224z"/> </g> </g> </g> </g>
</svg>